<?xml version="1.0" encoding="UTF-8"?><svg id="Layer_1" xmlns="http://www.w3.org/2000/svg" viewBox="0 0 650 160.07"><defs><style>.cls-1{font-family:Bahnschrift-Bold, Bahnschrift;font-size:108px;font-variation-settings:'wght' 700, 'wdth' 100;font-weight:700;}.cls-1,.cls-2{fill:#231f20;}</style></defs><path class="cls-2" d="M79.14,160.07H0v-19.32C0,139.69,.86,138.83,1.92,138.83H77.22c1.06,0,1.92,.86,1.92,1.92v19.32Z"/><path class="cls-2" d="M77.44,17.31H1.69c-.93,0-1.69-.76-1.69-1.69V1.76C0,.79,.79,0,1.76,0H77.37c.97,0,1.76,.79,1.76,1.76V15.62c0,.93-.76,1.69-1.69,1.69Z"/><rect class="cls-2" x="3.52" y="15.87" width="6.12" height="122.4"/><rect class="cls-2" x="69.49" y="15.87" width="6.12" height="122.4"/><rect class="cls-2" x="39.11" y="16.56" width=".92" height="16.69"/><polygon class="cls-2" points="68.65 58.01 10.49 87.06 10.49 47.14 68.65 47.14 68.65 58.01"/><path class="cls-2" d="M68.65,107.18v14.26h-17.11c-.31-6.09-5.35-10.93-11.51-10.93s-11.2,4.84-11.51,10.93H10.49v-14.26h58.16Z"/><path class="cls-2" d="M68.65,123.5v14.26H10.49v-14.26H28.51c.25,6.15,5.31,11.06,11.52,11.06s11.27-4.91,11.52-11.06h17.1Z"/><path class="cls-2" d="M39.57,34.25c1.57,0,2.84,1.27,2.84,2.84s-1.27,2.84-2.84,2.84-2.84-1.27-2.84-2.84,1.27-2.84,2.84-2.84m0-1c-2.12,0-3.84,1.72-3.84,3.84s1.72,3.84,3.84,3.84,3.84-1.72,3.84-3.84-1.72-3.84-3.84-3.84h0Z"/><text class="cls-1" transform="translate(97.63 119.67)"><tspan x="0" y="0">Guillotine</tspan></text><rect class="cls-2" x="10.49" y="36.09" width="58.16" height="10.43"/></svg>